<svg xmlns="http://www.w3.org/2000/svg" viewBox="0 0 32 32" width="32" height="32">
  <!-- Background circle -->
  <circle cx="16" cy="16" r="15" fill="#003366" stroke="#0066cc" stroke-width="2"/>
  
  <!-- Graduation cap top -->
  <rect x="8" y="12" width="16" height="3" fill="#FFD700" rx="1"/>
  
  <!-- Graduation cap square -->
  <rect x="10" y="15" width="12" height="8" fill="#333" rx="1"/>
  
  <!-- Film strip elements -->
  <rect x="4" y="8" width="2" height="2" fill="#FFD700"/>
  <rect x="4" y="11" width="2" height="2" fill="#FFD700"/>
  <rect x="4" y="14" width="2" height="2" fill="#FFD700"/>
  
  <rect x="26" y="8" width="2" height="2" fill="#FFD700"/>
  <rect x="26" y="11" width="2" height="2" fill="#FFD700"/>
  <rect x="26" y="14" width="2" height="2" fill="#FFD700"/>
  
  <!-- Tassel -->
  <line x1="20" y1="12" x2="22" y2="8" stroke="#FFD700" stroke-width="1"/>
  <circle cx="22" cy="8" r="1" fill="#FFD700"/>
  
  <!-- Achievement star -->
  <polygon points="16,18 17,20 19,20 17.5,21.5 18,23 16,22 14,23 14.5,21.5 13,20 15,20" fill="#FFD700"/>
</svg>